<svg width="20" height="21" viewBox="0 0 20 21" fill="none" xmlns="http://www.w3.org/2000/svg">
<path d="M10 2C9.20435 2 8.44129 2.31607 7.87868 2.87868C7.31607 3.44129 7 4.20435 7 5V11C7 11.7956 7.31607 12.5587 7.87868 13.1213C8.44129 13.6839 9.20435 14 10 14C10.7956 14 11.5587 13.6839 12.1213 13.1213C12.6839 12.5587 13 11.7956 13 11V5C13 4.20435 12.6839 3.44129 12.1213 2.87868C11.5587 2.31607 10.7956 2 10 2ZM10 0C10.6566 0 11.3068 0.129329 11.9134 0.380602C12.52 0.631876 13.0712 1.00017 13.5355 1.46447C13.9998 1.92876 14.3681 2.47995 14.6194 3.08658C14.8707 3.69321 15 4.34339 15 5V11C15 12.3261 14.4732 13.5979 13.5355 14.5355C12.5979 15.4732 11.3261 16 10 16C8.67392 16 7.40215 15.4732 6.46447 14.5355C5.52678 13.5979 5 12.3261 5 11V5C5 3.67392 5.52678 2.40215 6.46447 1.46447C7.40215 0.526784 8.67392 0 10 0ZM0.191999 12.962L2.154 12.569C2.51839 14.3814 3.49903 16.0118 4.92931 17.1832C6.35959 18.3545 8.15129 18.9946 10 18.9946C11.8487 18.9946 13.6404 18.3545 15.0707 17.1832C16.501 16.0118 17.4816 14.3814 17.846 12.569L19.808 12.962C18.896 17.545 14.85 21 10 21C5.15 21 1.104 17.545 0.191999 12.962Z" fill="black"/>
</svg>
